<?xml version="1.0" encoding="UTF-8"?>
<svg width="250" height="31.668" version="1.1" viewBox="0 0 249.99998 31.667511" xmlns="http://www.w3.org/2000/svg" xmlns:cc="http://creativecommons.org/ns#" xmlns:dc="http://purl.org/dc/elements/1.1/" xmlns:rdf="http://www.w3.org/1999/02/22-rdf-syntax-ns#">
<metadata>
<rdf:RDF>
<cc:Work rdf:about="">
<dc:format>image/svg+xml</dc:format>
<dc:type rdf:resource="http://purl.org/dc/dcmitype/StillImage"/>
<dc:title/>
</cc:Work>
</rdf:RDF>
</metadata>
<g transform="translate(-53.991 -58.084)">
<g id="title-graphic" fill="#284271" stroke-width="1px">
<path d="m71.607 89.71q-3.1954 0-3.1954-2.7448 0-0.90127 0.2458-2.0484 0.28677-1.188 0.77837-3.0316 0.57354-1.9254 0.86031-3.2774t0.28677-2.4171q0-2.7858-2.458-2.7858-0.69644 0-1.3519 0.16387l-3.2774 15.445h-5.8993l5.9402-27.858q-2.7448 1.1471-4.2606 3.4412-1.4748 2.2942-1.4748 5.5305 0 1.5158 0.28677 2.1303 0.28677 0.57354 0.28677 0.65547-2.2122 0-3.3183-0.90127-1.0651-0.94224-1.0651-3.0725 0-2.6219 2.1303-5.0799 2.1713-2.499 5.5305-4.0148 3.3593-1.5567 6.7186-1.5567 0.57354 0 1.6387 0.08193l-2.6629 12.536 4.2196-5.6534q5.0389-6.8005 5.0799-6.7596h4.3015l-11.389 13.109 1.4338-0.04097q2.7858 0 3.9328 1.188 1.1471 1.1471 1.1471 3.1954 0 1.188-0.28677 2.54-0.28677 1.3109-0.81934 3.2774-0.32774 1.27-0.61451 2.499-0.28677 1.229-0.28677 2.0484 0 0.94224 0.40967 1.6796 0.45064 0.73741 1.188 1.0242-2.499 0.69644-4.0557 0.69644z"/>
<path d="m83.306 89.26q-2.3351 0-3.8919-1.5977t-1.5567-4.998q0-3.0316 1.188-6.3499 1.229-3.3593 3.6051-5.6534 2.4171-2.3351 5.7354-2.3351 1.6796 0 2.499 0.57354 0.81934 0.57354 0.81934 1.5158v0.28677l0.45064-2.1713h5.8993l-2.9496 13.929q-0.16387 0.61451-0.16387 1.3109 0 1.7616 1.6796 1.7616 1.1471 0 1.9664-1.0651 0.86031-1.0651 1.3519-2.7858h1.7206q-1.5158 4.4244-3.769 6.0222-2.2122 1.5567-4.4654 1.5567-1.7206 0-2.7858-0.94224-1.0242-0.98321-1.229-2.8267-1.188 1.6796-2.6629 2.7448-1.4338 1.0242-3.4412 1.0242zm2.6629-3.9738q1.0242 0 2.0074-0.94224 1.0242-0.98321 1.3929-2.6629l1.9664-9.2585q0-0.53257-0.40967-1.0242-0.40967-0.53257-1.27-0.53257-1.6387 0-2.9496 1.9254-1.3109 1.8845-2.0484 4.5883-0.73741 2.6629-0.73741 4.7112t0.57354 2.6219q0.61451 0.57354 1.4748 0.57354z"/>
<path d="m102.7 68.53h5.8992l-0.53257 2.54q1.3929-1.229 2.499-1.8845 1.1471-0.65547 2.458-0.65547 1.311 0 2.0484 0.90127 0.77838 0.90128 0.77838 2.1713 0 1.188-0.77838 2.0893-0.77837 0.90127-2.1712 0.90127-0.90127 0-1.229-0.40967-0.28677-0.45064-0.45064-1.27-0.1229-0.53257-0.2458-0.77837t-0.45064-0.2458q-0.8603 0-1.4748 0.3687-0.57354 0.32774-1.5158 1.188l-3.2774 15.567h-5.8993l4.3425-20.484z"/>
<path d="m121.21 89.26q-3.0316 0-4.7112-1.5567-1.6796-1.5977-1.6796-4.957 0-2.8267 1.1061-6.227t3.6051-5.8583q2.499-2.499 6.3499-2.499 4.5064 0 4.5064 3.9328 0 2.2942-1.3109 4.2196-1.311 1.9254-3.4822 3.1135-2.1712 1.1471-4.6293 1.3109-0.0819 1.229-0.0819 1.6387 0 2.0074 0.69644 2.7448 0.69644 0.69644 2.2532 0.69644 2.2122 0 3.769-1.0242 1.5977-1.0242 3.4822-3.1135h1.3929q-4.5473 7.5789-11.266 7.5789zm0.0819-10.488q1.5158-0.08193 2.8677-1.0651 1.3929-0.98321 2.2122-2.499 0.86031-1.5158 0.86031-3.1954t-1.0242-1.6796q-1.4748 0-2.9087 2.5809-1.3929 2.5809-2.0074 5.8583z"/>
<path d="m135.09 89.26q-1.9664 0-3.1954-1.229-1.188-1.27-1.188-3.769 0-1.0242 0.32773-2.6629l4.3835-20.524 6.0631-0.81934-4.7112 22.122q-0.16387 0.61451-0.16387 1.188 0 1.6387 1.6796 1.6387 0.7374 0 1.3109-0.2458-0.16387 2.0484-1.4748 3.1954-1.27 1.1061-3.0316 1.1061z"/>
<path d="m158.52 89.751q-2.5809 0-4.5473-0.90128-1.9664-0.90127-3.0316-2.499-1.0651-1.6387-1.0651-3.769 0-1.8025 0.73741-3.2774 0.77837-1.4748 2.0484-2.3351 1.3109-0.86031 2.8677-0.86031 1.4338 0 2.4171 0.73741 0.9832 0.69644 1.229 1.9664-2.1303 0-3.4003 1.1471-1.27 1.1061-1.27 3.0316 0 1.7616 1.0651 2.8267 1.0651 1.0651 2.8267 1.0651 2.1713 0 3.5641-1.4338 1.4338-1.4748 1.4338-3.687 0-1.9254-1.0651-3.6461-1.0652-1.7206-3.1954-4.1786-2.2122-2.54-3.3593-4.3425-1.1061-1.8435-1.1061-4.0148 0-2.1303 1.188-3.8099 1.188-1.7206 3.2774-2.7038 2.0893-0.98321 4.7112-0.98321 3.3183 0 5.2847 1.5567 2.0074 1.5567 2.0074 4.1786 0 1.7206-0.86031 2.7858-0.86031 1.0651-2.2532 1.0651-1.5567 0-2.499-1.27 0.77837-0.57354 1.229-1.5158 0.45063-0.94224 0.45063-1.9664 0-1.3109-0.77837-2.0893-0.77837-0.77837-2.1303-0.77837-1.6387 0-2.7038 1.188-1.0242 1.1471-1.0242 2.9496 0 1.6387 0.94224 3.0725 0.94224 1.3929 2.9496 3.6051 1.6387 1.7616 2.6219 3.0316 1.0242 1.27 1.7206 2.9496 0.7374 1.6387 0.7374 3.5641 0 2.6219-1.4748 4.7522-1.4338 2.1303-3.9738 3.3593-2.499 1.229-5.5715 1.229z"/>
<path d="m175.9 89.26q-1.9664 0-3.1954-1.229-1.188-1.229-1.188-3.687 0-1.0242 0.32774-2.6629l2.7858-13.15h5.8992l-2.9496 13.929q-0.1229 0.61451-0.1229 1.1471 0 1.6796 1.229 1.6796 1.1471 0 1.9664-0.94224 0.81934-0.98321 1.3109-2.6629l2.7858-13.15h5.8992l-2.9496 13.929q-0.16387 0.61451-0.16387 1.3109 0 0.81934 0.3687 1.188 0.40967 0.32774 1.311 0.32774 1.1471 0 1.9664-0.98321 0.86031-0.98321 1.3519-2.6219h1.7206q-1.5158 4.4244-3.769 6.0222-2.2122 1.5567-4.4654 1.5567-1.7616 0-2.8267-0.98321-1.0242-0.98321-1.229-2.9087-1.3929 2.2532-2.9496 3.0725-1.5158 0.81934-3.1135 0.81934z"/>
<path d="m198.43 89.26q-3.0316 0-4.7112-1.5567-1.6796-1.5977-1.6796-4.957 0-2.8267 1.1061-6.227 1.1471-3.4003 3.6051-5.8583 2.499-2.499 6.3089-2.499 2.458 0 3.4822 1.0651 1.0651 1.0651 1.0651 2.7038 0 1.4338-0.6145 2.2122-0.61451 0.77837-1.5568 0.77837-0.69644 0-1.4338-0.4916 0.4916-1.3519 0.4916-2.4171 0-0.77837-0.28677-1.229t-0.86031-0.45064q-1.229 0-2.458 2.0074t-2.0074 4.8751q-0.77838 2.8677-0.77838 5.1618 0 2.0074 0.69644 2.7448 0.69644 0.69644 2.2532 0.69644 2.2122 0 3.769-1.0242 1.5977-1.0242 3.4822-3.1135h1.3929q-4.5473 7.5789-11.266 7.5789z"/>
<path d="m223.12 89.26q-2.499 0-3.687-1.3109-1.1471-1.3519-1.1471-3.3183 0-0.86031 0.20484-1.9254 0.20483-1.1061 0.40967-2.1303 0.2458-1.0242 0.32773-1.3109 0.32774-1.4338 0.61451-2.8267t0.28677-2.2532q0-2.0893-1.4748-2.0893-1.0652 0-1.8845 1.0651-0.81934 1.0242-1.3109 2.7038l-2.7858 13.15h-5.8992l5.9402-27.858 6.0631-0.81934-2.2122 10.324q2.0484-2.2942 4.7931-2.2942 2.0893 0 3.3183 1.1471 1.229 1.1471 1.229 3.4822 0 1.188-0.28677 2.6629-0.28677 1.4338-0.81934 3.5232-0.32774 1.27-0.61451 2.499-0.2458 1.188-0.2458 1.8845 0 0.81934 0.36871 1.27 0.3687 0.45064 1.27 0.45064 1.229 0 1.9664-0.86031 0.73741-0.90128 1.4748-2.7448h1.7206q-1.5158 4.5064-3.5232 6.0631-1.9664 1.5158-4.0967 1.5158z"/>
<path d="m235.04 89.178q-3.0316 0-4.7931-1.5567t-1.7616-4.916q0-2.7858 1.1471-6.186 1.1471-3.4003 3.687-5.8583 2.54-2.499 6.3908-2.499 5.2438 0 5.2438 6.5547v0.04097q0.1229 0.04097 0.45064 0.04097 1.3519 0 3.1135-0.69644 1.7616-0.73741 3.1954-1.7616l0.36871 1.1061q-1.188 1.27-3.1135 2.1713-1.8845 0.86031-4.1377 1.229-0.32773 3.728-1.6796 6.5138-1.3519 2.7858-3.4822 4.3015-2.1303 1.5158-4.6293 1.5158zm1.6387-3.687q0.98321 0 1.9664-1.1061 0.98321-1.1471 1.7206-3.0725 0.7374-1.9664 1.0651-4.3425-1.1061-0.2458-1.1061-1.7206 0-1.6796 1.27-2.2122-0.0819-1.3519-0.40967-1.8435-0.32774-0.53257-1.1471-0.53257-1.3519 0-2.6219 1.9664t-2.0484 4.7112-0.77837 4.8341q0 1.9664 0.45063 2.6629 0.45064 0.65547 1.6387 0.65547z"/>
<path d="m271.97 89.26q-2.499 0-3.687-1.3109-1.1471-1.3519-1.1471-3.3183 0-0.86031 0.20483-1.9254 0.20484-1.1061 0.40967-2.1303 0.2458-1.0242 0.32774-1.3109 0.32773-1.4338 0.6145-2.8267t0.28677-2.2532q0-2.0893-1.4748-2.0893-1.0651 0-1.8845 1.0651-0.81934 1.0242-1.311 2.7038l-2.7858 13.15h-5.8992l2.9906-14.134q0.1229-0.4916 0.1229-1.0242 0-1.8025-1.229-1.8025-1.1471 0-2.0074 1.0651-0.81934 1.0242-1.3109 2.7448l-2.7858 13.15h-5.8992l4.3425-20.484h5.8992l-0.45063 2.1303q2.0893-2.3351 4.998-2.3351 3.6051 0 4.2196 3.5232 2.2532-3.4822 5.6944-3.4822 2.0893 0 3.3183 1.1471 1.229 1.1471 1.229 3.4822 0 1.188-0.28677 2.6629-0.28676 1.4338-0.81934 3.5232-0.32773 1.27-0.6145 2.499-0.2458 1.188-0.2458 1.8845 0 0.81934 0.3687 1.27t1.27 0.45064q1.229 0 1.9664-0.86031 0.73741-0.90128 1.4748-2.7448h1.7206q-1.5158 4.5064-3.5232 6.0631-1.9664 1.5158-4.0967 1.5158z"/>
<path d="m283.72 89.26q-3.0316 0-4.7112-1.5567-1.6796-1.5977-1.6796-4.957 0-2.8267 1.1061-6.227t3.6051-5.8583q2.499-2.499 6.3499-2.499 4.5064 0 4.5064 3.9328 0 2.2942-1.311 4.2196-1.3109 1.9254-3.4822 3.1135-2.1712 1.1471-4.6293 1.3109-0.0819 1.229-0.0819 1.6387 0 2.0074 0.69643 2.7448 0.69644 0.69644 2.2532 0.69644 2.2122 0 3.769-1.0242 1.5977-1.0242 3.4822-3.1135h1.3929q-4.5473 7.5789-11.266 7.5789zm0.0819-10.488q1.5158-0.08193 2.8677-1.0651 1.3929-0.98321 2.2122-2.499 0.8603-1.5158 0.8603-3.1954t-1.0242-1.6796q-1.4748 0-2.9087 2.5809-1.3929 2.5809-2.0074 5.8583z"/>
<path d="m297.6 89.26q-1.9664 0-3.1954-1.229-1.188-1.27-1.188-3.769 0-1.0242 0.32774-2.6629l4.3835-20.524 6.0631-0.81934-4.7112 22.122q-0.16387 0.61451-0.16387 1.188 0 1.6387 1.6796 1.6387 0.73741 0 1.311-0.2458-0.16387 2.0484-1.4748 3.1954-1.27 1.1061-3.0316 1.1061z"/>
</g>
</g>
</svg>
