<svg xmlns:rdf="http://www.w3.org/1999/02/22-rdf-syntax-ns#" xmlns="http://www.w3.org/2000/svg" height="100" width="400" version="1.1" xmlns:cc="http://creativecommons.org/ns#" xmlns:dc="http://purl.org/dc/elements/1.1/" viewBox="0 0 400.0304 100.01393">
	<g transform="translate(-21.22 -937.3)">
		<path id="path" d="m79.18 4.039c-1.6 0-3.252.3477-4.959 1.041-6.51 2.773-12.11 10.19-16.8 22.24l-6.799 17.12c-1.333.16-2.8.2402-4.4.2402-1.547 0-3.388-.2922-5.521-.8789-2.08-.5867-3.732-1.601-4.959-3.041-1.227-1.493-2.027-2.934-2.4-4.32-.3733-1.387-.5605-2.56-.5605-3.52 0-1.013.1605-2.052.4805-3.119 1.333-4.533 3.708-7.893 7.121-10.08 1.973-1.28 4.105-2.054 6.398-2.32.6933-.1067 1.308-.2671 1.842-.4805.5333-.2133.7453-.454.6387-.7207-.1067-.2667-.3989-.3984-.8789-.3984s-1.066.07828-1.76.2383c-4.373 1.013-8.001 2.507-10.88 4.48-2.827 1.973-4.666 3.92-5.52 5.84-.8 1.92-1.201 3.708-1.201 5.361 0 3.147 1.121 5.972 3.361 8.479 1.707 1.92 3.999 3.441 6.879 4.561s6.001 1.68 9.361 1.68h.8789c-3.2 6.56-6 11.71-8.4 15.44-2.24-.4267-4.746-.6406-7.52-.6406-7.733 0-13.87 1.333-18.4 4-4 2.293-6 4.96-6 8s1.521 5.306 4.561 6.799c1.76.9067 3.76 1.361 6 1.361 2.293 0 4.907-.7202 7.84-2.16 4.907-2.347 9.627-6.694 14.16-13.04 4.427.8533 7.947 1.627 10.56 2.32 2.667.64 5.786 1.761 9.359 3.361 3.627 1.547 6.454 3.199 8.48 4.959 2.027 1.813 3.413 3.787 4.16 5.92.7467 2.133 1.119 4.08 1.119 5.84s-.319 3.281-.959 4.561c-.5867 1.333-.8809 2.134-.8809 2.4 0 .2666.1605.3984.4805.3984s.8529-.1853 1.6-.5586c.7467-.3733 1.387-1.067 1.92-2.08.5867-.96.8809-2.16.8809-3.6s-.3209-3.175-.9609-5.201c-1.227-3.947-3.599-7.28-7.119-10-6.94-5.33-15.68-9.31-26.24-11.92l1.68-2.719c1.44-2.613 3.786-7.202 7.039-13.76 5.653-.96 11.12-3.306 16.4-7.039 5.333-3.787 9.494-8.213 12.48-13.28 3.04-5.067 4.561-9.921 4.561-14.56 0-.5867-.02675-1.2-.08008-1.84-.11-1.493-.91-2.746-2.4-3.759-1.44-1.067-2.99-1.602-4.64-1.602zm.9609 4.24c1.867 0 2.799 1.014 2.799 3.041 0 7.147-2.986 13.97-8.959 20.48-5.92 6.453-12.59 10.51-20 12.16 2.187-4.533 4.666-9.467 7.439-14.8 2.827-5.387 5.761-9.973 8.801-13.76 3.893-4.747 7.2-7.121 9.92-7.121zm-49.64 56.56c2.773 0 5.467.2942 8.08.8809-3.79 5.39-7.9 9.15-12.32 11.28-2.933 1.387-5.653 2.08-8.16 2.08-1.813 0-3.494-.4527-5.041-1.359-1.493-.8533-2.24-1.975-2.24-3.361 0-.48.107-.9862.3203-1.52 1.067-2.933 4.667-5.201 10.8-6.801 2.933-.8 5.787-1.199 8.561-1.199z" transform="translate(21.21,937.3)" stroke="#000" stroke-width="1px" fill="none"/>
	</g>
</svg>
