<svg xmlns:rdf="http://www.w3.org/1999/02/22-rdf-syntax-ns#" xmlns="http://www.w3.org/2000/svg" height="100" width="400" version="1.1" xmlns:cc="http://creativecommons.org/ns#" xmlns:dc="http://purl.org/dc/elements/1.1/" viewBox="0 0 400.0304 100.01393">
	<g transform="translate(-21.22 -937.3)">
		<path d="m79.18 4.039c-1.6 0-3.26.348-4.96 1.041-6.51 2.773-12.11 10.19-16.8 22.24l-6.8 17.12c-1.34.16-2.8.24-4.4.24-1.55 0-3.39-.29-5.52-.88-2.08-.59-3.74-1.6-4.96-3.04-1.23-1.49-2.03-2.93-2.4-4.32-.38-1.39-.56-2.56-.56-3.52 0-1.01.16-2.05.48-3.12 1.33-4.53 3.7-7.89 7.12-10.08 1.97-1.28 4.1-2.05 6.4-2.32.69-.11 1.3-.27 1.84-.48.53-.21.74-.45.64-.72-.11-.27-.40-.40-.88-.40s-1.07.08-1.76.24c-4.38 1.01-8 2.51-10.88 4.48-2.83 1.97-4.67 3.92-5.52 5.84-.80 1.92-1.2 3.71-1.2 5.36 0 3.15 1.12 5.97 3.36 8.48 1.7 1.92 4 3.44 6.88 4.56s6 1.68 9.36 1.68h.88c-3.2 6.56-6 11.71-8.4 15.44-2.24-.43-4.75-.64-7.52-.64-7.74 0-13.87 1.33-18.4 4-4 2.29-6.004 4.96-6.004 8s1.524 5.31 4.564 6.8c1.76.91 3.76 1.36 6 1.36 2.29 0 4.9-.72 7.84-2.16 4.9-2.35 9.62-6.69 14.16-13.04 4.42.85 7.94 1.63 10.56 2.32 2.66.64 5.78 1.76 9.36 3.36 3.62 1.55 6.45 3.2 8.48 4.96 2.02 1.81 3.41 3.79 4.16 5.92.74 2.13 1.12 4.08 1.12 5.84s-.32 3.28-.96 4.56c-.59 1.33-.88 2.13-.88 2.4s.16.40.48.40.85-.19 1.6-.56c.74-.37 1.38-1.07 1.92-2.08.58-.96.88-2.16.88-3.6s-.32-3.17-.96-5.2c-1.23-3.95-3.6-7.28-7.12-10-6.94-5.33-15.68-9.31-26.24-11.92l1.68-2.72c1.44-2.61 3.78-7.2 7.04-13.76 5.65-.96 11.12-3.31 16.4-7.04 5.33-3.79 9.49-8.21 12.48-13.28 3.04-5.07 4.56-9.92 4.56-14.56 0-.59-.03-1.2-.08-1.84-.11-1.493-.91-2.746-2.4-3.759-1.44-1.067-2.99-1.602-4.64-1.602zm209.2 1.361c-.6 0-1.3.161-2.2.481-.9.267-2 1.145-3.2 2.639-1.3 1.49-2.1 2.75-2.6 3.76-27.4 4.64-42.6 13.81-45.6 27.52-.2 1.12-.3 2.16-.3 3.12 0 3.15 1.1 5.6 3.3 7.36 2.3 1.76 4.4 2.64 6.3 2.64 2 0 3.8-.32 5.5-.96 3.4-1.28 6-3.63 7.8-7.04 1.1-1.87 1.6-3.57 1.6-5.12 0-1.6-.4-3.07-1.1-4.4-.5-.80-1-.80-1.5 0-.2.32-.3.56-.2.72.5.37.7 1.31.7 2.8 0 2.99-.9 5.57-2.6 7.76-1.2 1.49-2.6 2.56-4.3 3.2-1.6.64-3.1.96-4.6.96-1.3 0-2.7-.69-3.9-2.08s-1.8-3.2-1.8-5.44c0-1.07.1-2.24.5-3.52 1-4.48 3.2-8.51 6.8-12.08 2.8-2.77 6.8-5.28 11.9-7.52 5-2.13 11.7-4.08 20.2-5.84-4.2 7.36-8.2 15.97-12 25.84-2.1 5.81-5.3 11.73-9.4 17.76-2.5 3.52-5.1 6.75-8 9.68-2.9 2.88-6.4 5.57-10.4 8.08-4.1 2.51-8.3 4.32-12.7 5.44-2.2.53-3.9.80-5.2.80-1.3.05-2.6.08-3.8.08s-3-.27-5.4-.80c-5.2-1.17-9.3-3.36-12.2-6.56-2.3-2.56-3.4-5.63-3.4-9.2 0-4.69 1.5-8.91 4.7-12.64 2-2.45 3.8-4.03 5.5-4.72.7-.37 1-.67.9-.88-.1-.16-.4-.24-1-.24-1.4.11-3.4 1.28-5.8 3.52-2.5 2.19-4.3 4.72-5.4 7.6-1 2.83-1.6 5.28-1.6 7.36s.2 3.79.6 5.12c1 3.68 3 6.67 6.1 8.96 4.6 3.31 10.7 4.96 18.4 4.96 16.5 0 30.1-6.8 40.7-20.4 2.9-3.73 5.3-7.81 7.4-12.24 2.1-4.48 3.6-8.53 4.7-12.16 2.9-10.45 6.2-19.04 9.8-25.76l3.4-.72c1.6-.53 3-1.17 4.2-1.92 1.3-.85 1.9-2.079 1.9-3.679 0-1.494-.9-2.241-2.7-2.241zm-1.4 2.561c.7 0 1.1.319 1.2.959.1 1.28-1.6 2.29-5.2 3.04 2.1-2.666 3.5-3.999 4-3.999zm-206.9.318c1.86 0 2.8 1.015 2.8 3.041 0 7.15-2.99 13.97-8.96 20.48-5.92 6.45-12.59 10.51-20 12.16 2.18-4.53 4.66-9.47 7.44-14.8 2.82-5.39 5.76-9.97 8.8-13.76 3.89-4.75 7.2-7.121 9.92-7.121zm25.86 27.76c-1.1 0-1.9.83-2.2 2.48-.9 4.85-2.4 9.97-4.56 15.36-.28.70-.57 1.38-.86 2.05-.15.06-.26.17-.33.35-.11.21-.43.88-.96 2-.48 1.07-.88 1.89-1.2 2.48s-.83 1.52-1.52 2.8c-.70 1.23-1.84 2.67-3.44 4.32-1.28 1.44-2.64 2.16-4.08 2.16-1.82 0-3.07-.67-3.76-2 2.98-2.83 5.22-5.97 6.72-9.44 1.17-2.56 1.76-4.96 1.76-7.2 0-4.91-1.95-7.36-5.84-7.36-2.62 0-5.39 1.31-8.32 3.92-2.88 2.61-5.12 5.79-6.72 9.52-1.18 2.56-1.76 4.96-1.76 7.2 0 4.91 1.94 7.36 5.84 7.36 2.08 0 4.35-.91 6.8-2.72 1.23 1.39 2.93 2.08 5.12 2.08 1.17 0 2.42-.40 3.76-1.2.42-.26.87-.62 1.32-1.04h.01c.10-.04.21-.12.34-.24 3.1-2.99 6.32-8.88 9.68-17.68l1-2.56c4.2.11 6.4.99 6.4 2.64 0 .37-.1.77-.3 1.2-.1.37-.9 1.71-2.2 4-1.4 2.29-2.3 4.24-3 5.84-.6 1.6-.9 2.88-.9 3.84s.1 1.68.3 2.16c.8 2.51 2.2 3.76 4.3 3.76 1.9 0 3.8-1.23 5.8-3.68 1.6-1.81 2.8-3.41 3.6-4.81 0 .32-.1.65-.1.97 0 2.4.8 4.29 2.3 5.68s3.3 2.08 5.4 2.08c3.2 0 6-1.23 8.4-3.64-.7 1.56-1.4 2.86-1.8 3.72.4-.21 1.1-.35 2.3-.40s2-.13 2.3-.24c.5-.16.8-.53 1.1-1.12 3.6-6.99 7.3-12.19 11-15.6 2-1.87 3.5-3.04 4.4-3.52.4-.21.8-.29 1-.24.2 0 .3.37.3 1.12-.1.69-.6 2.05-1.5 4.08-3 6.13-4.4 10.29-4.4 12.48 0 .53.2 1.17.6 1.92s1.1 1.12 2 1.12c.5-2.19 2-5.09 4.5-8.72 2.6-3.63 5-6.51 7.3-8.64s3.8-3.2 4.7-3.2 1.4.29 1.4.88c0 .53-.3 1.28-.9 2.24-2.4 3.84-3.9 6.61-4.4 8.32-.6 1.71-.8 3.17-.8 4.4 0 1.17.2 2.11.7 2.8 1.1 1.49 2.3 2.24 3.8 2.24 1.6 0 2.9-.40 4.1-1.2 1.2-.85 2.2-1.71 3-2.56s1.7-2.19 2.8-4 1.8-3.04 2.1-3.68l1.3-2.56c.5-1.07.8-1.73.8-2s-.1-.48-.5-.64c-.3-.16-.6.13-.9.88-1.9 4.27-4.1 7.92-6.6 10.96-1.6 1.92-3.1 2.88-4.4 2.88-1 0-1.5-.75-1.5-2.24 0-3.36 3.2-10.83 9.8-22.4-.3-.11-.5-.16-.8-.16-1.4 0-3.5.80-6.4 2.4s-5.4 3.36-7.6 5.28c-2.1 1.87-4.3 4.27-6.7 7.2.5-1.07 1.7-3.25 3.5-6.56s2.8-5.36 2.8-6.16c0-.91-.6-1.57-1.6-2-.2-.21-.5-.24-.9-.08-.5.11-.8.16-1.1.16-.2 0-.6.16-1.1.48s-.9.56-1.2.72c-.3.11-.7.37-1.2.80s-.9.77-1.3 1.04c-.2.21-.7.59-1.2 1.12-.6.48-1 .85-1.3 1.12s-.7.64-1.2 1.12c-.6.48-1.4 1.2-2.5 2.16s-2.9 2.99-5.4 6.08c4.5-8.96 7.7-13.97 9.7-15.04-.4.11-1.1.08-2-.08-.8-.16-1.4-.24-1.6-.24-1.1 0-2 .32-2.6.96-1.1 1.06-3.1 4.41-5.8 9.99-.3.19-.5.48-.6.89-4 9.12-8.4 13.68-13.2 13.68-1.3 0-2.2-.43-2.9-1.28-.7-.91-1-2.11-1-3.6 0-2.24.4-4.27 1.1-6.08 1.2 0 2.8-.35 4.9-1.04 2.2-.75 3.8-1.57 5-2.48 3.8-2.93 5.7-6 5.7-9.2 0-.91-.4-1.73-1.3-2.48-1-.64-2-.96-3.1-.96-1.2 0-2.3.27-3.6.80-2.5 1.07-4.8 2.77-6.8 5.12-1.9 2.29-3.5 4.8-4.7 7.52-.3.82-.6 1.63-.8 2.43-3.7 7.01-6.5 10.53-8.5 10.53-1.8 0-2-2.03-.7-6.08.4-1.07.9-2.24 1.4-3.52.6-1.28 1.1-2.35 1.5-3.2.5-.91 1-1.84 1.5-2.8.5-1.01 1.1-2.19 1.7-3.52.7-1.39 1-2.43 1-3.12s-.1-1.12-.2-1.28c-2.7.27-5 .40-6.8.40-1.7 0-3.2-.03-4.2-.08 3-2.13 4.5-4.4 4.5-6.8 0-.64 0-1.2-.2-1.68-.5-1.49-1.4-2.24-2.6-2.24zm205.9 4.24c-2.8 0-5.3 2.27-7.4 6.8-1.9 4.16-4.3 8.83-7 14-.7.05-1.4.53-2.1 1.44s-1 1.87-1 2.88c0 .96.1 1.79.2 2.48.8 2.99 3.1 4.48 6.9 4.48 1 0 2.1-.27 3.3-.80 1.9.53 3.8.48 5.8-.16 1.2-.37 2.3-1.01 3.2-1.92l1.6-1.76c.6-.48 1.1-1.15 1.6-2 .4-.65.7-1.16 1-1.66-.4 1.21-.6 2.32-.6 3.34 0 .37.1.69.3.96.4 2.4 2.1 3.6 5 3.6 3.3 0 6.9-3.41 10.8-10.24-.5 1.81-.8 3.33-.8 4.56s.2 2.24.5 3.04c.7 1.76 2.1 2.64 4.1 2.64 1.9 0 3.8-1.07 5.8-3.17-.7 1.52-1.4 2.8-1.8 3.65.4-.21 1.1-.35 2.3-.40s2-.13 2.3-.24c.5-.16.8-.53 1.1-1.12 3.6-6.99 7.3-12.19 11-15.6 2-1.87 3.5-3.04 4.4-3.52.5-.21.8-.29 1-.24.2 0 .4.37.3 1.12-.1.69-.6 2.05-1.5 4.08-2.9 6.13-4.4 10.29-4.4 12.48 0 .53.2 1.17.6 1.92.5.75 1.1 1.12 2 1.12.5-2.19 2-5.09 4.5-8.72 2.6-3.63 5-6.51 7.3-8.64s3.9-3.2 4.7-3.2c.9 0 1.4.29 1.4.88 0 .53-.3 1.28-.9 2.24-2.4 3.84-3.9 6.61-4.4 8.32s-.8 3.17-.8 4.4c0 1.17.2 2.11.7 2.8 1.1 1.49 2.4 2.24 3.8 2.24 1.6 0 3-.40 4.1-1.2 1.3-.85 2.2-1.71 3-2.56s1.7-2.19 2.8-4 1.8-3.04 2.1-3.68l1.3-2.56c.6-1.07.8-1.73.8-2s-.1-.48-.5-.64c-.3-.16-.6.13-.9.88-1.9 4.27-4.1 7.92-6.6 10.96-1.6 1.92-3.1 2.88-4.4 2.88-1 0-1.5-.75-1.5-2.24 0-3.36 3.3-10.83 9.8-22.4-.2-.11-.5-.16-.8-.16-1.4 0-3.5.80-6.4 2.4s-5.4 3.36-7.6 5.28c-2.1 1.87-4.3 4.27-6.7 7.2.6-1.07 1.7-3.25 3.5-6.56 1.9-3.31 2.8-5.36 2.8-6.16 0-.91-.6-1.57-1.6-2-.2-.21-.5-.24-.9-.08-.4.11-.8.16-1.1.16-.2 0-.5.16-1.1.48-.5.32-.9.56-1.2.72-.2.11-.6.37-1.2.80-.5.43-.9.77-1.3 1.04-.2.21-.7.59-1.2 1.12-.6.48-1 .85-1.3 1.12s-.7.64-1.2 1.12c-.6.48-1.4 1.2-2.5 2.16s-2.9 2.99-5.4 6.08c4.5-8.96 7.8-13.97 9.7-15.04-.4.11-1.1.08-2-.08-.8-.16-1.4-.24-1.6-.24-1.1 0-2 .32-2.6.96-1.1 1.04-3 4.26-5.7 9.67-.2.13-.3.39-.5.81-4.2 8.91-7.8 13.36-10.6 13.36-1.2-.11-1.8-1.01-1.8-2.72 0-.64.1-1.33.2-2.08.4-2.08 2.2-6.32 5.4-12.72 1.2-2.45 2.1-4.16 2.7-5.12.7-.96 1.6-1.89 2.8-2.8h-4.3c-1.5 0-2.5.56-3.1 1.68-5.1 10.61-9.1 17.57-11.9 20.88-1.9 2.13-3.3 3.2-4.3 3.2-.7 0-1.2-.24-1.7-.72-.3-.48-.5-1.31-.5-2.48s.5-2.88 1.6-5.12c1-2.29 2.5-5.41 4.5-9.36 1.9-4 3.9-6.69 5.8-8.08h-4.9c-1.5 0-2.6.56-3.1 1.68-1.2 2.4-2.7 5.33-4.5 8.8l-1.4 2.8c0 .03 0 .05-.1.08-2.4 4.71-4.2 7.78-5.2 9.04-2.1 2.51-4.2 3.76-6.3 3.76-.3 0-.8-.05-1.5-.16 1.6-1.07 2.9-2.45 4-4.16 1.2-1.71 1.7-3.44 1.7-5.2s-.6-4.03-1.8-6.8c-.6-1.12-1-2.16-1.5-3.12-.4-.96-.6-2.19-.6-3.68 0-2.83.9-4.67 2.7-5.52.3-.16.7-.24 1.1-.24.5 0 1 .13 1.6.40.5.27.9.19 1.1-.24s-.1-.80-.8-1.12c-.7-.37-1.4-.56-2.2-.56zm-20.2 3.6c-1.5 0-2.9.75-4.5 2.24-1 .96-2 1.89-2.9 2.8-.8.91-2.2 2.91-4.1 6l-1.6 2.56c1.5-4 2.2-7.63 2.2-10.88 0-.53-.1-1.01-.2-1.44s-.5-.64-1-.64c-.5-.05-2.4.19-5.6.72.8.32 1.1 1.47 1.1 3.44 0 1.92-.5 4.03-1.4 6.32-.8 1.76-1.3 2.96-1.6 3.6-.3.59-.3.88 0 .88.5-.05 1.1-.51 1.7-1.36-.7 3.31-3.4 9.71-8.1 19.2-4.8 9.55-7.8 14.88-9 16 .5-.05 1.1 0 1.9.16s1.3.24 1.5.24h1.1c.6 0 1.3-.27 2-.80s1.4-1.65 2.2-3.36l7.6-18.96c1.9.96 3.5 1.44 5 1.44 1.6 0 2.9-.16 4.1-.48 3.1-.96 5.7-2.75 7.8-5.36 2.2-2.61 3.9-5.33 5.1-8.16 1.3-2.83 1.9-5.41 1.9-7.76 0-3.47-1.3-5.55-4-6.24-.4-.11-.8-.16-1.2-.16zm-157.2 1.44c.9 0 1.3.53 1.3 1.6 0 2.77-1.5 5.41-4.4 7.92-1.3 1.07-2.8 1.92-4.6 2.56-1.7.64-3 .96-3.9.96 1.4-2.77 3-5.28 4.8-7.52 3-3.68 5.3-5.52 6.8-5.52zm156.4.72c.7 0 1.3.37 1.6 1.12.4.69.5 1.47.5 2.32 0 1.81-.7 4.16-2.3 7.04-2.4 4.43-5.4 8.13-8.9 11.12-2.3 1.87-4 2.8-5.2 2.8-1.3 0-2.2-.35-2.9-1.04 4.6-8.64 8.2-14.69 10.6-18.16 2.5-3.47 4.7-5.2 6.6-5.2zm15.5.40c-.1.37-.1 1.07-.1 2.08s.2 2.96.6 5.84.5 5.15.5 6.8c0 4.05-1.1 6.99-3.5 8.8-2.2-1.07-3.3-3.17-3.3-6.32 0-1.6-.6-2.4-1.7-2.4.9-1.76 3.4-6.69 7.5-14.8zm-219.8.08c1.97 0 2.96 1.31 2.96 3.92s-.67 5.28-2 8c-1.17 2.45-2.22 4.35-3.12 5.68.10-.43.16-.83.16-1.2 0-.43-.24-.88-.72-1.36-.43-.48-.99-.72-1.68-.72-1.76 0-2.7 1.15-2.8 3.44 0 1.39.42 2.69 1.28 3.92-1.66 1.44-3.15 2.16-4.48 2.16-1.87 0-2.8-1.23-2.8-3.68s.93-5.6 2.8-9.44c1.54-3.31 3.3-5.92 5.28-7.84 1.97-1.92 3.68-2.88 5.12-2.88zm212.8 18.16c.1 2.77 1.2 4.77 3.2 6-.5.21-1 .32-1.6.32-1.6 0-2.6-.72-3-2.16-.1-.37-.1-.72-.1-1.04 0-1.12.5-2.16 1.5-3.12zm-268.9.16c2.77 0 5.46.29 8.08.88-3.79 5.39-7.9 9.15-12.32 11.28-2.94 1.39-5.66 2.08-8.16 2.08-1.82 0-3.5-.45-5.04-1.36-1.5-.85-2.24-1.97-2.24-3.36 0-.48.10-.99.32-1.52 1.06-2.93 4.66-5.2 10.8-6.8 2.93-.80 5.78-1.2 8.56-1.2z" transform="translate(21.21 937.3)" stroke="#000" stroke-width="2" fill="none"/>
	</g>
</svg>
