<svg xmlns:rdf="http://www.w3.org/1999/02/22-rdf-syntax-ns#" xmlns="http://www.w3.org/2000/svg" height="100" width="400" version="1.1" xmlns:cc="http://creativecommons.org/ns#" xmlns:dc="http://purl.org/dc/elements/1.1/" viewBox="0 0 400.0304 100.01393">
	<g transform="translate(-21.22 -937.3)" stroke="#000" stroke-width="1px" fill="none">
		<path d="m70.46 953.6c-10.12.1986-21.86 9.954-18.03 20.77 3.619 9.319 22.33 10.48 32.46 5.028 11.13-5.57 23.22-16.88 21.77-29.13-1.649-11.34-14.6-5.636-18.32 1.24-8.28 11.65-11.63 25.94-18.9 38.21-6.129 10.75-13.5 22.83-25.71 27.17-10.74 4.752-19.31-8.618-5.459-13.79 18.59-6.621 34.7-2.09 50.21 8.987 9.523 7.585 8.751 14.53 7.299 20.56"/>
		<path d="m105.1 1004c4.114-3.794 7.018-9.518 6.343-15.03-.6749-5.514-7.299-6.286-11.95-1.679-4.652 4.607-8.953 11.33-7.995 18.22.9582 6.892 10.06 1.657 12.24-1.349 2.183-3.006-2.505-6.804-3.448-1.881-.9440 4.923 7.584 7.968 11.72 4.863 4.133-3.105 6.801-7.698 8.788-13.18 1.987-5.484 1.85-6.119 2.543-11.93 3.373 1.935 5.057 4.187 11.87 2.803-1.656 3.875-3.368 8.001-5.17 13.28-1.802 5.278-4.114 9.775 1.408 10.19 8.197-1.805 15.88-9.951 20.51-14.48 4.625-4.531 7.928-11.57 2.727-11.29-5.201.2759-9.079 4.357-11.53 8.807-2.448 4.45-4.743 12.2-.8385 16.1 3.904 3.898 8.193 1.189 12.61-3.022 4.419-4.211 8.999-12.98 12.93-19.79l-12.19 24.82c4.381-7.878 11.93-17.33 16.96-21.05 5.028-3.718 9.013-4.433 5.497.5519s-5.621 10.54-6.289 16.46c-.3075 1.237-.8784 4.884.2688 1.567 3.263-7.74 10.97-17.05 14.46-19.36 3.485-2.303 10.33-5.488 8.305-1.796-2.028 3.692-6.965 11.73-9.03 17.71-2.065 5.975 3.003 6.028 7.49 2.211 4.486-3.817 7.537-10.62 7.537-10.62"/>
	</g>
</svg>
